<mxfile host="app.diagrams.net" agent="Mozilla/5.0 (Windows NT 10.0; Win64; x64; rv:138.0) Gecko/20100101 Firefox/138.0" version="27.0.5">
  <diagram name="Page-1" id="wXACGnrSFoJbZHd3U6j7">
    <mxGraphModel dx="786" dy="471" grid="1" gridSize="10" guides="1" tooltips="1" connect="1" arrows="1" fold="1" page="1" pageScale="1" pageWidth="3300" pageHeight="4681" math="0" shadow="0">
      <root>
        <mxCell id="0" />
        <mxCell id="1" parent="0" />
        <mxCell id="OZC1Bb6JFVDjJDZW7-sx-3" style="edgeStyle=orthogonalEdgeStyle;rounded=0;orthogonalLoop=1;jettySize=auto;html=1;exitX=1;exitY=0.5;exitDx=0;exitDy=0;entryX=0;entryY=0.5;entryDx=0;entryDy=0;" edge="1" parent="1" source="OZC1Bb6JFVDjJDZW7-sx-1" target="OZC1Bb6JFVDjJDZW7-sx-2">
          <mxGeometry relative="1" as="geometry" />
        </mxCell>
        <mxCell id="OZC1Bb6JFVDjJDZW7-sx-1" value="data&#xa;Time Series Data&#xa;COVID-19" style="rectangle;fillColor=#fff2cc;strokeColor=#d6b656;" name="data" vertex="1" parent="1">
          <mxGeometry x="340" y="230" width="100" height="50" as="geometry" />
        </mxCell>
        <mxCell id="OZC1Bb6JFVDjJDZW7-sx-5" style="edgeStyle=orthogonalEdgeStyle;rounded=0;orthogonalLoop=1;jettySize=auto;html=1;exitX=1;exitY=0.5;exitDx=0;exitDy=0;entryX=0;entryY=0.5;entryDx=0;entryDy=0;" edge="1" parent="1" source="OZC1Bb6JFVDjJDZW7-sx-2" target="OZC1Bb6JFVDjJDZW7-sx-4">
          <mxGeometry relative="1" as="geometry" />
        </mxCell>
        <mxCell id="OZC1Bb6JFVDjJDZW7-sx-2" value="transform:embed" style="rounded=1;whiteSpace=wrap;html=1;arcSize=50;fillColor=#f8cecc;strokeColor=#b85450;" name="transform" vertex="1" parent="1">
          <mxGeometry x="520" y="230" width="100" height="50" as="geometry" />
        </mxCell>
        <mxCell id="OZC1Bb6JFVDjJDZW7-sx-7" style="edgeStyle=orthogonalEdgeStyle;rounded=0;orthogonalLoop=1;jettySize=auto;html=1;exitX=1;exitY=0.5;exitDx=0;exitDy=0;entryX=0.5;entryY=0;entryDx=0;entryDy=0;" edge="1" parent="1" source="OZC1Bb6JFVDjJDZW7-sx-4" target="OZC1Bb6JFVDjJDZW7-sx-6">
          <mxGeometry relative="1" as="geometry" />
        </mxCell>
        <mxCell id="OZC1Bb6JFVDjJDZW7-sx-4" value="data&#xa;Prepared Time&#xa;Series Data" style="rectangle;fillColor=#fff2cc;strokeColor=#d6b656;" name="data" vertex="1" parent="1">
          <mxGeometry x="700" y="230" width="100" height="50" as="geometry" />
        </mxCell>
        <mxCell id="OZC1Bb6JFVDjJDZW7-sx-9" style="edgeStyle=orthogonalEdgeStyle;rounded=0;orthogonalLoop=1;jettySize=auto;html=1;exitX=0.5;exitY=1;exitDx=0;exitDy=0;entryX=1;entryY=0.5;entryDx=0;entryDy=0;" edge="1" parent="1" source="OZC1Bb6JFVDjJDZW7-sx-6" target="OZC1Bb6JFVDjJDZW7-sx-8">
          <mxGeometry relative="1" as="geometry" />
        </mxCell>
        <mxCell id="OZC1Bb6JFVDjJDZW7-sx-6" value="transform:embed" style="rounded=1;whiteSpace=wrap;html=1;arcSize=50;fillColor=#f8cecc;strokeColor=#b85450;" name="transform" vertex="1" parent="1">
          <mxGeometry x="830" y="330" width="100" height="50" as="geometry" />
        </mxCell>
        <mxCell id="OZC1Bb6JFVDjJDZW7-sx-11" style="edgeStyle=orthogonalEdgeStyle;rounded=0;orthogonalLoop=1;jettySize=auto;html=1;exitX=0;exitY=0.5;exitDx=0;exitDy=0;entryX=1;entryY=0.5;entryDx=0;entryDy=0;" edge="1" parent="1" source="OZC1Bb6JFVDjJDZW7-sx-8" target="OZC1Bb6JFVDjJDZW7-sx-10">
          <mxGeometry relative="1" as="geometry" />
        </mxCell>
        <mxCell id="OZC1Bb6JFVDjJDZW7-sx-17" style="edgeStyle=orthogonalEdgeStyle;rounded=0;orthogonalLoop=1;jettySize=auto;html=1;entryX=0.5;entryY=0;entryDx=0;entryDy=0;" edge="1" parent="1" source="OZC1Bb6JFVDjJDZW7-sx-8" target="OZC1Bb6JFVDjJDZW7-sx-15">
          <mxGeometry relative="1" as="geometry" />
        </mxCell>
        <mxCell id="OZC1Bb6JFVDjJDZW7-sx-8" value="data&#xa;Fractal&#xa;Dimensions" style="rectangle;fillColor=#fff2cc;strokeColor=#d6b656;" name="data" vertex="1" parent="1">
          <mxGeometry x="700" y="430" width="100" height="50" as="geometry" />
        </mxCell>
        <mxCell id="OZC1Bb6JFVDjJDZW7-sx-14" style="edgeStyle=orthogonalEdgeStyle;rounded=0;orthogonalLoop=1;jettySize=auto;html=1;exitX=0;exitY=0.5;exitDx=0;exitDy=0;entryX=0.5;entryY=0;entryDx=0;entryDy=0;" edge="1" parent="1" source="OZC1Bb6JFVDjJDZW7-sx-10" target="OZC1Bb6JFVDjJDZW7-sx-12">
          <mxGeometry relative="1" as="geometry" />
        </mxCell>
        <mxCell id="OZC1Bb6JFVDjJDZW7-sx-10" value="generate:train" style="rounded=1;whiteSpace=wrap;html=1;arcSize=50;fillColor=#e1d5e7;strokeColor=#9673a6;" name="generate:train" vertex="1" parent="1">
          <mxGeometry x="520" y="430" width="100" height="50" as="geometry" />
        </mxCell>
        <mxCell id="OZC1Bb6JFVDjJDZW7-sx-16" style="edgeStyle=orthogonalEdgeStyle;rounded=0;orthogonalLoop=1;jettySize=auto;html=1;exitX=0.5;exitY=1;exitDx=0;exitDy=0;entryX=0;entryY=0.5;entryDx=0;entryDy=0;" edge="1" parent="1" source="OZC1Bb6JFVDjJDZW7-sx-12" target="OZC1Bb6JFVDjJDZW7-sx-15">
          <mxGeometry relative="1" as="geometry" />
        </mxCell>
        <mxCell id="OZC1Bb6JFVDjJDZW7-sx-12" value="model:semantic&#xa;Fuzzy Logic&#xa;Model" style="shape=hexagon;perimeter=hexagonPerimeter2;fillColor=#b0e3e6;strokeColor=#0e8088;" name="model" vertex="1" parent="1">
          <mxGeometry x="380" y="530" width="120" height="50" as="geometry" />
        </mxCell>
        <mxCell id="OZC1Bb6JFVDjJDZW7-sx-19" style="edgeStyle=orthogonalEdgeStyle;rounded=0;orthogonalLoop=1;jettySize=auto;html=1;exitX=1;exitY=0.5;exitDx=0;exitDy=0;entryX=0;entryY=0.5;entryDx=0;entryDy=0;" edge="1" parent="1" source="OZC1Bb6JFVDjJDZW7-sx-15" target="OZC1Bb6JFVDjJDZW7-sx-18">
          <mxGeometry relative="1" as="geometry" />
        </mxCell>
        <mxCell id="OZC1Bb6JFVDjJDZW7-sx-15" value="infer:deduce" style="rounded=1;whiteSpace=wrap;html=1;arcSize=50;fillColor=#bac8d3;strokeColor=#23445d;" name="infer:deduce" vertex="1" parent="1">
          <mxGeometry x="700" y="630" width="100" height="50" as="geometry" />
        </mxCell>
        <mxCell id="OZC1Bb6JFVDjJDZW7-sx-18" value="symbol&#xa;Forecasted Trends" style="rectangle;fillColor=#dae8fc;strokeColor=#6c8ebf;" name="symbol" vertex="1" parent="1">
          <mxGeometry x="880" y="630" width="100" height="50" as="geometry" />
        </mxCell>
      </root>
    </mxGraphModel>
  </diagram>
</mxfile>
